{
  "accessors": [
    {
      "bufferView": 2,
      "componentType": 5126,
      "count": 65532,
      "max": [
        0.059904202818870544,
        0.040042877197265625,
        0.23186004161834717
      ],
      "min": [
        -0.05177915096282959,
        -0.04362635314464569,
        0.020060479640960693
      ],
      "type": "VEC3"
    },
    {
      "bufferView": 2,
      "byteOffset": 786384,
      "componentType": 5126,
      "count": 65532,
      "max": [
        0.99997878074646,
        0.9999991059303284,
        0.9999945759773254
      ],
      "min": [
        -0.9999979138374329,
        -0.9999988079071045,
        -0.984917402267456
      ],
      "type": "VEC3"
    },
    {
      "bufferView": 1,
      "componentType": 5126,
      "count": 65532,
      "max": [
        0.9989614486694336,
        0.9995115995407104
      ],
      "min": [
        0.00048828125,
        0.0010206295410171151
      ],
      "type": "VEC2"
    },
    {
      "bufferView": 1,
      "byteOffset": 524256,
      "componentType": 5126,
      "count": 65532,
      "max": [
        0.9989614486694336,
        0.9995115995407104
      ],
      "min": [
        0.00048828125,
        0.0010206295410171151
      ],
      "type": "VEC2"
    },
    {
      "bufferView": 0,
      "componentType": 5125,
      "count": 329466,
      "type": "SCALAR"
    },
    {
      "bufferView": 2,
      "byteOffset": 1572768,
      "componentType": 5126,
      "count": 65532,
      "max": [
        0.07100824266672134,
        0.04904597997665405,
        0.22966277599334717
      ],
      "min": [
        -0.0694894939661026,
        -0.04978303611278534,
        -2.9802322387695313e-08
      ],
      "type": "VEC3"
    },
    {
      "bufferView": 2,
      "byteOffset": 2359152,
      "componentType": 5126,
      "count": 65532,
      "max": [
        0.99997878074646,
        0.9999901056289673,
        0.9999932050704956
      ],
      "min": [
        -0.999993622303009,
        -0.9999988079071045,
        -1.0
      ],
      "type": "VEC3"
    },
    {
      "bufferView": 1,
      "byteOffset": 1048512,
      "componentType": 5126,
      "count": 65532,
      "max": [
        0.9994007349014282,
        0.9991533160209656
      ],
      "min": [
        0.00048828125,
        0.0004883600631728768
      ],
      "type": "VEC2"
    },
    {
      "bufferView": 1,
      "byteOffset": 1572768,
      "componentType": 5126,
      "count": 65532,
      "max": [
        0.9994007349014282,
        0.9991533160209656
      ],
      "min": [
        0.00048828125,
        0.0004883600631728768
      ],
      "type": "VEC2"
    },
    {
      "bufferView": 0,
      "byteOffset": 1317864,
      "componentType": 5125,
      "count": 301386,
      "type": "SCALAR"
    },
    {
      "bufferView": 2,
      "byteOffset": 3145536,
      "componentType": 5126,
      "count": 35847,
      "max": [
        0.059774249792099,
        0.040763407945632935,
        0.2317933291196823
      ],
      "min": [
        -0.05067545175552368,
        -0.04356639087200165,
        0.06432178616523743
      ],
      "type": "VEC3"
    },
    {
      "bufferView": 2,
      "byteOffset": 3575700,
      "componentType": 5126,
      "count": 35847,
      "max": [
        0.9999963045120239,
        0.9999957084655762,
        0.9999952912330627
      ],
      "min": [
        -0.999956488609314,
        -0.9999626874923706,
        -0.9478433728218079
      ],
      "type": "VEC3"
    },
    {
      "bufferView": 1,
      "byteOffset": 2097024,
      "componentType": 5126,
      "count": 35847,
      "max": [
        0.9994934797286987,
        0.9845077395439148
      ],
      "min": [
        0.00048828125,
        0.0004906250396743417
      ],
      "type": "VEC2"
    },
    {
      "bufferView": 1,
      "byteOffset": 2383800,
      "componentType": 5126,
      "count": 35847,
      "max": [
        0.9994934797286987,
        0.9845077395439148
      ],
      "min": [
        0.00048828125,
        0.0004906250396743417
      ],
      "type": "VEC2"
    },
    {
      "bufferView": 0,
      "byteOffset": 2523408,
      "componentType": 5125,
      "count": 142722,
      "type": "SCALAR"
    }
  ],
  "asset": {
    "extras": {
      "author": "KoteKarateL (https://sketchfab.com/KoteKarateL)",
      "license": "CC-BY-4.0 (http://creativecommons.org/licenses/by/4.0/)",
      "source": "https://sketchfab.com/3d-models/scan-2023-05-12t073102401z-7fdb9d4c797641fa9f946588940c360f",
      "title": "Scan 2023-05-12T07:31:02.401Z"
    },
    "generator": "Sketchfab-15.22.0",
    "version": "2.0"
  },
  "bufferViews": [
    {
      "buffer": 0,
      "byteLength": 3094296,
      "name": "floatBufferViews",
      "target": 34963
    },
    {
      "buffer": 0,
      "byteLength": 2670576,
      "byteOffset": 3094296,
      "byteStride": 8,
      "name": "floatBufferViews",
      "target": 34962
    },
    {
      "buffer": 0,
      "byteLength": 4005864,
      "byteOffset": 5764872,
      "byteStride": 12,
      "name": "floatBufferViews",
      "target": 34962
    }
  ],
  "buffers": [
    {
      "byteLength": 9770736,
      "uri": "scene.bin"
    }
  ],
  "extensionsUsed": [
    "KHR_materials_unlit"
  ],
  "images": [
    {
      "uri": "textures/tex_u1_v1_baseColor.jpeg"
    }
  ],
  "materials": [
    {
      "doubleSided": true,
      "extensions": {
        "KHR_materials_unlit": {}
      },
      "name": "tex_u1_v1",
      "pbrMetallicRoughness": {
        "baseColorTexture": {
          "index": 0
        },
        "metallicFactor": 0.0
      }
    }
  ],
  "meshes": [
    {
      "name": "model_tex_u1_v1_0",
      "primitives": [
        {
          "attributes": {
            "NORMAL": 1,
            "POSITION": 0,
            "TEXCOORD_0": 2,
            "TEXCOORD_1": 3
          },
          "indices": 4,
          "material": 0,
          "mode": 4
        }
      ]
    },
    {
      "name": "model_tex_u1_v1_0",
      "primitives": [
        {
          "attributes": {
            "NORMAL": 6,
            "POSITION": 5,
            "TEXCOORD_0": 7,
            "TEXCOORD_1": 8
          },
          "indices": 9,
          "material": 0,
          "mode": 4
        }
      ]
    },
    {
      "name": "model_tex_u1_v1_0",
      "primitives": [
        {
          "attributes": {
            "NORMAL": 11,
            "POSITION": 10,
            "TEXCOORD_0": 12,
            "TEXCOORD_1": 13
          },
          "indices": 14,
          "material": 0,
          "mode": 4
        }
      ]
    }
  ],
  "nodes": [
    {
      "children": [
        1
      ],
      "matrix": [
        1.0,
        0.0,
        0.0,
        0.0,
        0.0,
        2.220446049250313e-16,
        -1.0,
        0.0,
        0.0,
        1.0,
        2.220446049250313e-16,
        0.0,
        0.0,
        0.0,
        0.0,
        1.0
      ],
      "name": "Sketchfab_model"
    },
    {
      "children": [
        2
      ],
      "matrix": [
        1.0,
        0.0,
        0.0,
        0.0,
        0.0,
        0.0,
        1.0,
        0.0,
        0.0,
        -1.0,
        0.0,
        0.0,
        0.0,
        0.0,
        0.0,
        1.0
      ],
      "name": "model.fbx"
    },
    {
      "children": [
        3
      ],
      "name": "RootNode"
    },
    {
      "children": [
        4,
        5,
        6
      ],
      "matrix": [
        1.0,
        0.0,
        0.0,
        0.0,
        0.0,
        2.220446049250313e-16,
        -1.0,
        0.0,
        0.0,
        1.0,
        2.220446049250313e-16,
        0.0,
        0.0,
        0.0,
        0.0,
        1.0
      ],
      "name": "model"
    },
    {
      "mesh": 0,
      "name": "model_tex_u1_v1_0"
    },
    {
      "mesh": 1,
      "name": "model_tex_u1_v1_0"
    },
    {
      "mesh": 2,
      "name": "model_tex_u1_v1_0"
    }
  ],
  "samplers": [
    {
      "magFilter": 9729,
      "minFilter": 9987,
      "wrapS": 10497,
      "wrapT": 10497
    }
  ],
  "scene": 0,
  "scenes": [
    {
      "name": "Sketchfab_Scene",
      "nodes": [
        0
      ]
    }
  ],
  "textures": [
    {
      "sampler": 0,
      "source": 0
    }
  ]
}
